<svg width="30" height="31" viewBox="0 0 30 31" fill="none" xmlns="http://www.w3.org/2000/svg">
<path d="M22.139 12.5598C22.139 18.9805 17.2226 24.1856 11.158 24.1856C5.09332 24.1856 0.176941 18.9805 0.176941 12.5598C0.176941 6.13908 5.09332 0.934052 11.158 0.934052C17.2226 0.934052 22.139 6.13908 22.139 12.5598ZM3.1417 12.5598C3.1417 17.247 6.73071 21.0467 11.158 21.0467C15.5852 21.0467 19.1743 17.247 19.1743 12.5598C19.1743 7.87261 15.5852 4.07288 11.158 4.07288C6.73071 4.07288 3.1417 7.87261 3.1417 12.5598Z" fill="#009ADE"/>
<line y1="-2" x2="13.8612" y2="-2" transform="matrix(0.718889 0.695125 -0.653201 0.757185 16.9766 21.2738)" stroke="#009ADE" stroke-width="4"/>
</svg>
