<svg width="33" height="31" viewBox="0 0 33 31" fill="none" xmlns="http://www.w3.org/2000/svg">
<path d="M0.792572 22.9077V8.68956C0.792572 4.39555 4.55257 0.886902 9.1542 0.886902H24.3909C28.9926 0.886902 32.7526 4.39555 32.7526 8.68956V22.9077C32.7526 27.2018 28.9926 30.7104 24.3909 30.7104H9.1542C4.55257 30.7104 0.792572 27.2018 0.792572 22.9077Z" fill="black"/>
<path d="M10.0723 13.0244H13.1656V22.306H10.0723V13.0244ZM11.6135 8.41418C12.6082 8.41418 13.4061 9.15875 13.4061 10.0869C13.4061 11.0049 12.6082 11.7596 11.6135 11.7596C10.6189 11.7596 9.82095 11.0049 9.82095 10.0869C9.82095 9.15875 10.6298 8.41418 11.6135 8.41418Z" fill="white"/>
<path d="M15.1003 13.0244H18.0623V14.2891H18.1061C18.5214 13.5548 19.527 12.7898 21.0354 12.7898C24.1614 12.7898 24.7407 14.7073 24.7407 17.2062V22.306H21.6475V17.7978C21.6475 16.7166 21.6256 15.3397 20.0407 15.3397C18.434 15.3397 18.1826 16.5126 18.1826 17.7264V22.306H15.0893V13.0244H15.1003Z" fill="white"/>
</svg>
