<svg width="32" height="31" viewBox="0 0 32 31" fill="none" xmlns="http://www.w3.org/2000/svg">
<path d="M0.353577 22.8826V8.68065C0.353577 4.39154 4.03929 0.886902 8.55 0.886902H23.4857C27.9964 0.886902 31.6821 4.39154 31.6821 8.68065V22.8826C31.6821 27.1717 27.9964 30.6764 23.4857 30.6764H8.55C4.03929 30.6764 0.353577 27.1717 0.353577 22.8826Z" fill="black"/>
<path d="M24.675 10.6775C24.1286 10.9118 23.5286 11.0544 22.95 11.1461C23.2286 11.1054 23.6357 10.6265 23.7964 10.433C24.0429 10.1375 24.2572 9.80131 24.375 9.43455C24.3857 9.40398 24.3964 9.37342 24.375 9.35304C24.3429 9.34285 24.3107 9.34285 24.2786 9.36323C23.625 9.69943 22.95 9.93375 22.2322 10.1069C22.1679 10.1171 22.125 10.1069 22.0929 10.0764C22.0286 10.0153 21.975 9.95413 21.9107 9.90319C21.6107 9.65868 21.2893 9.46511 20.9143 9.32248C20.4322 9.1391 19.9072 9.05759 19.3929 9.08816C18.8893 9.11872 18.3964 9.25116 17.9464 9.4753C17.4964 9.69943 17.1 10.0051 16.7786 10.382C16.4464 10.7692 16.2107 11.2276 16.0822 11.7064C15.9643 12.1751 15.975 12.6335 16.05 13.1022C16.0607 13.1837 16.05 13.1939 15.975 13.1837C13.1572 12.7864 10.8322 11.8287 8.93572 9.78093C8.86072 9.67905 8.80715 9.67905 8.74287 9.78093C7.91787 10.9627 8.31429 12.8577 9.35358 13.795C9.49287 13.9172 9.63215 14.0395 9.78215 14.1617C9.72858 14.1719 9.04287 14.1006 8.42144 13.795C8.33572 13.744 8.29287 13.7746 8.29287 13.8663C8.28215 13.9987 8.29287 14.1108 8.3143 14.2534C8.47501 15.4454 9.34287 16.5559 10.5429 16.994C10.6822 17.0551 10.8429 17.0959 10.9929 17.1264C10.725 17.1875 10.4357 17.2283 9.6643 17.1672C9.56787 17.1468 9.52501 17.1977 9.56787 17.2792C10.1572 18.7972 11.4214 19.2455 12.3643 19.5104C12.4929 19.5308 12.6214 19.5308 12.75 19.5613C12.7393 19.5715 12.7393 19.5715 12.7286 19.5817C12.4179 20.0402 11.325 20.3764 10.8214 20.5496C9.90001 20.8552 8.89287 20.9978 7.91787 20.9061C7.75715 20.8858 7.72501 20.8858 7.68215 20.9061C7.6393 20.9265 7.67144 20.9673 7.72501 21.008C7.91787 21.1303 8.12144 21.2423 8.32501 21.3442C8.94644 21.66 9.58929 21.9045 10.2643 22.0777C13.7572 22.9947 17.6786 22.3223 20.3036 19.8466C22.3607 17.9007 23.0786 15.2213 23.0786 12.5419C23.0786 12.44 23.2072 12.3789 23.2822 12.3279C23.8179 11.9408 24.2464 11.4925 24.6429 10.9729C24.7286 10.8609 24.7286 10.759 24.7286 10.7182C24.7286 10.708 24.7286 10.708 24.7286 10.708C24.7393 10.6367 24.7393 10.6469 24.675 10.6775Z" fill="white"/>
</svg>
