<svg width="33" height="31" viewBox="0 0 33 31" fill="none" xmlns="http://www.w3.org/2000/svg">
<path d="M0.722321 22.6364V8.59342C0.722321 4.35231 4.40232 0.886902 8.90604 0.886902H23.8186C28.3223 0.886902 32.0023 4.35231 32.0023 8.59342V22.6364C32.0023 26.8775 28.3223 30.3429 23.8186 30.3429H18.8014L16.1805 29.7385L13.9233 30.3429H8.90604C4.40232 30.3429 0.722321 26.8775 0.722321 22.6364Z" fill="black"/>
<path d="M22.4493 20.3597L23.1446 16.0984H18.8014V13.3382C18.8014 12.1696 19.4112 11.0414 21.3474 11.0414H23.3158V7.41476C23.3158 7.41476 21.5293 7.12262 19.8177 7.12262C16.2446 7.12262 13.9125 9.15754 13.9125 12.8547V16.0984H9.94371V20.3597H13.9125V30.3429H18.8014V20.3597H22.4493Z" fill="white"/>
</svg>
